<svg xmlns="http://www.w3.org/2000/svg" width="46.067" height="46.067" viewBox="0 0 46.067 46.067">
  <g id="Light" transform="translate(46.067 46.067) rotate(180)">
    <path id="Path_2" data-name="Path 2" d="M110.758,0a14.36,14.36,0,0,0-8.578,25.877v1.2a4.232,4.232,0,0,0-.3,6.076,4.237,4.237,0,0,0,1.845,6.942,7.131,7.131,0,0,0,14.072,0,4.237,4.237,0,0,0,1.845-6.943,4.231,4.231,0,0,0-.3-6.076v-1.2A14.36,14.36,0,0,0,110.758,0Zm5.783,28.72a1.542,1.542,0,0,1,0,3.083H104.976a1.542,1.542,0,1,1,0-3.083Zm-5.783,14.648a4.441,4.441,0,0,1-4.223-3.083h8.446A4.441,4.441,0,0,1,110.758,43.367Zm5.783-5.782H104.976a1.541,1.541,0,1,1,0-3.083h11.565a1.541,1.541,0,0,1,0,3.083Zm.695-13.528a1.35,1.35,0,0,0-.6,1.122v.844l-.1,0H115V20.7l1.938-1.938a1.35,1.35,0,0,0-1.908-1.909L112.7,19.188a1.349,1.349,0,0,0-.4.954V26.02h-3.083V20.142a1.35,1.35,0,0,0-.4-.954l-2.333-2.333a1.35,1.35,0,1,0-1.908,1.909l1.938,1.938v5.319h-1.542l-.1,0v-.844a1.35,1.35,0,0,0-.6-1.122,11.661,11.661,0,1,1,12.955,0Zm0,0" transform="translate(-87.725)" fill="#83cb16"/>
    <path id="Path_3" data-name="Path 3" d="M5.59,145.952a1.349,1.349,0,0,0-1.35-1.35H1.35a1.35,1.35,0,0,0,0,2.7H4.241A1.35,1.35,0,0,0,5.59,145.952Zm0,0" transform="translate(0 -131.592)" fill="#83cb16"/>
    <path id="Path_4" data-name="Path 4" d="M454.108,144.6h-2.891a1.35,1.35,0,0,0,0,2.7h2.891a1.35,1.35,0,1,0,0-2.7Zm0,0" transform="translate(-409.391 -131.592)" fill="#83cb16"/>
    <path id="Path_5" data-name="Path 5" d="M35.464,249.212l-2.5,1.446A1.35,1.35,0,1,0,34.31,253l2.5-1.445a1.35,1.35,0,1,0-1.35-2.338Zm0,0" transform="translate(-29.381 -226.625)" fill="#83cb16"/>
    <path id="Path_6" data-name="Path 6" d="M423.233,28.245a1.344,1.344,0,0,0,.673-.181l2.5-1.446a1.349,1.349,0,0,0-1.35-2.337l-2.5,1.446a1.35,1.35,0,0,0,.676,2.519Zm0,0" transform="translate(-383.923 -21.931)" fill="#83cb16"/>
    <path id="Path_7" data-name="Path 7" d="M426.409,250.662l-2.5-1.445a1.35,1.35,0,1,0-1.35,2.338l2.5,1.445a1.35,1.35,0,0,0,1.349-2.338Zm0,0" transform="translate(-383.922 -226.629)" fill="#83cb16"/>
    <path id="Path_8" data-name="Path 8" d="M36.816,25.727l-2.5-1.445a1.35,1.35,0,0,0-1.35,2.338l2.5,1.446a1.35,1.35,0,0,0,1.35-2.338Zm0,0" transform="translate(-29.383 -21.932)" fill="#83cb16"/>
  </g>
</svg>
