<svg xmlns="http://www.w3.org/2000/svg" width="47.575" height="52.342" viewBox="0 0 47.575 52.342">
  <g id="Watering" transform="translate(-66.25 -278.246)">
    <g id="water" transform="translate(79 298)">
      <g id="Group_3" data-name="Group 3" transform="translate(0 0)">
        <g id="Group_2" data-name="Group 2">
          <path id="Path_1" data-name="Path 1" d="M55.233,3.538C54.518,2.448,53.887,1.446,53.3.53a1.3,1.3,0,0,0-.336-.349A1.073,1.073,0,0,0,51.449.53c-.547.915-1.177,1.874-1.934,3.008-3.322,5.056-8.283,12.684-8.283,17.043a11.713,11.713,0,0,0,3.279,8.151,11.035,11.035,0,0,0,7.862,3.356,10.9,10.9,0,0,0,7.862-3.4,11.713,11.713,0,0,0,3.279-8.151C63.516,16.179,58.554,8.594,55.233,3.538Zm3.49,23.582a8.735,8.735,0,0,1-6.349,2.7,8.909,8.909,0,0,1-6.349-2.7,9.394,9.394,0,0,1-2.607-6.582c0-3.661,4.751-10.941,7.9-15.779.378-.567.715-1.133,1.051-1.613.336.479.673,1.046,1.051,1.613,3.153,4.882,7.9,12.118,7.9,15.779A9.582,9.582,0,0,1,58.723,27.12Z" transform="translate(-41.232 0)" fill="#e9e9e9" stroke="#e9e9e9" stroke-linecap="round" stroke-linejoin="round" stroke-width="1"/>
        </g>
      </g>
    </g>
    <g id="water-2" data-name="water" transform="translate(67 279)">
      <g id="Group_3-2" data-name="Group 3" transform="translate(0 0)">
        <g id="Group_2-2" data-name="Group 2">
          <path id="Path_1-2" data-name="Path 1" d="M51.332,2.552c-.516-.786-.971-1.509-1.4-2.17a.941.941,0,0,0-.243-.252A.774.774,0,0,0,48.6.383c-.394.66-.849,1.352-1.4,2.17-2.4,3.647-5.975,9.15-5.975,12.294a8.449,8.449,0,0,0,2.366,5.88,7.96,7.96,0,0,0,5.672,2.421A7.863,7.863,0,0,0,54.941,20.7a8.449,8.449,0,0,0,2.366-5.88C57.307,11.671,53.728,6.2,51.332,2.552Zm2.517,17.011a6.3,6.3,0,0,1-4.58,1.95,6.427,6.427,0,0,1-4.58-1.95,6.776,6.776,0,0,1-1.88-4.748c0-2.641,3.427-7.892,5.7-11.383.273-.409.516-.818.758-1.163.243.346.485.755.758,1.163,2.275,3.522,5.7,8.741,5.7,11.383A6.912,6.912,0,0,1,53.849,19.563Z" transform="translate(-41.232 0)" fill="#e9e9e9" stroke="#e9e9e9" stroke-linecap="round" stroke-linejoin="round" stroke-width="1.5"/>
        </g>
      </g>
    </g>
    <g id="water-3" data-name="water" transform="translate(97 279)">
      <g id="Group_3-3" data-name="Group 3" transform="translate(0 0)">
        <g id="Group_2-3" data-name="Group 2">
          <path id="Path_1-3" data-name="Path 1" d="M51.332,2.552c-.516-.786-.971-1.509-1.4-2.17a.941.941,0,0,0-.243-.252A.774.774,0,0,0,48.6.383c-.394.66-.849,1.352-1.4,2.17-2.4,3.647-5.975,9.15-5.975,12.294a8.449,8.449,0,0,0,2.366,5.88,7.96,7.96,0,0,0,5.672,2.421A7.863,7.863,0,0,0,54.941,20.7a8.449,8.449,0,0,0,2.366-5.88C57.307,11.671,53.728,6.2,51.332,2.552Zm2.517,17.011a6.3,6.3,0,0,1-4.58,1.95,6.427,6.427,0,0,1-4.58-1.95,6.776,6.776,0,0,1-1.88-4.748c0-2.641,3.427-7.892,5.7-11.383.273-.409.516-.818.758-1.163.243.346.485.755.758,1.163,2.275,3.522,5.7,8.741,5.7,11.383A6.912,6.912,0,0,1,53.849,19.563Z" transform="translate(-41.232 0)" fill="#e9e9e9" stroke="#e9e9e9" stroke-linecap="round" stroke-linejoin="round" stroke-width="1.5"/>
        </g>
      </g>
    </g>
  </g>
</svg>
