<svg id="water" xmlns="http://www.w3.org/2000/svg" width="54.343" height="79.211" viewBox="0 0 54.343 79.211">
  <g id="Group_3" data-name="Group 3" transform="translate(0 0)">
    <g id="Group_2" data-name="Group 2">
      <path id="Path_1" data-name="Path 1" d="M75.376,8.733c-1.743-2.69-3.281-5.165-4.717-7.424a3.2,3.2,0,0,0-.82-.861,2.6,2.6,0,0,0-3.691.861c-1.333,2.26-2.871,4.627-4.717,7.424-8.1,12.482-20.2,31.312-20.2,42.072a29.1,29.1,0,0,0,8,20.121A26.755,26.755,0,0,0,68.4,79.212a26.432,26.432,0,0,0,19.174-8.393,29.1,29.1,0,0,0,8-20.121C95.575,39.937,83.476,21.215,75.376,8.733Zm8.51,58.212A21.18,21.18,0,0,1,68.4,73.616a21.6,21.6,0,0,1-15.483-6.671A23.342,23.342,0,0,1,46.564,50.7c0-9.038,11.586-27.008,19.276-38.951.923-1.4,1.743-2.8,2.563-3.981.82,1.184,1.641,2.582,2.563,3.981C78.657,23.8,90.243,41.659,90.243,50.7A23.809,23.809,0,0,1,83.886,66.945Z" transform="translate(-41.232 0)" fill="#6f8ee8"/>
    </g>
  </g>
</svg>
